<svg id="visual" viewBox="0 0 960 540" width="960" height="540" xmlns="http://www.w3.org/2000/svg" xmlns:xlink="http://www.w3.org/1999/xlink" version="1.1"><rect x="0" y="0" width="960" height="540" fill="#001220"></rect><path d="M0 352L13.3 347.7C26.7 343.3 53.3 334.7 80 340.8C106.7 347 133.3 368 160 376.5C186.7 385 213.3 381 240 378C266.7 375 293.3 373 320 366.5C346.7 360 373.3 349 400 350.7C426.7 352.3 453.3 366.7 480 372.7C506.7 378.7 533.3 376.3 560 371.2C586.7 366 613.3 358 640 350.2C666.7 342.3 693.3 334.7 720 334.2C746.7 333.7 773.3 340.3 800 347.2C826.7 354 853.3 361 880 360.7C906.7 360.3 933.3 352.7 946.7 348.8L960 345L960 541L946.7 541C933.3 541 906.7 541 880 541C853.3 541 826.7 541 800 541C773.3 541 746.7 541 720 541C693.3 541 666.7 541 640 541C613.3 541 586.7 541 560 541C533.3 541 506.7 541 480 541C453.3 541 426.7 541 400 541C373.3 541 346.7 541 320 541C293.3 541 266.7 541 240 541C213.3 541 186.7 541 160 541C133.3 541 106.7 541 80 541C53.3 541 26.7 541 13.3 541L0 541Z" fill="#4facf7"></path><path d="M0 392L13.3 393.3C26.7 394.7 53.3 397.3 80 397.8C106.7 398.3 133.3 396.7 160 390.7C186.7 384.7 213.3 374.3 240 377.3C266.7 380.3 293.3 396.7 320 401.3C346.7 406 373.3 399 400 395.2C426.7 391.3 453.3 390.7 480 388.3C506.7 386 533.3 382 560 378.2C586.7 374.3 613.3 370.7 640 371.2C666.7 371.7 693.3 376.3 720 381C746.7 385.7 773.3 390.3 800 392.7C826.7 395 853.3 395 880 397.7C906.7 400.3 933.3 405.7 946.7 408.3L960 411L960 541L946.7 541C933.3 541 906.7 541 880 541C853.3 541 826.7 541 800 541C773.3 541 746.7 541 720 541C693.3 541 666.7 541 640 541C613.3 541 586.7 541 560 541C533.3 541 506.7 541 480 541C453.3 541 426.7 541 400 541C373.3 541 346.7 541 320 541C293.3 541 266.7 541 240 541C213.3 541 186.7 541 160 541C133.3 541 106.7 541 80 541C53.3 541 26.7 541 13.3 541L0 541Z" fill="#3e80bd"></path><path d="M0 427L13.3 430.3C26.7 433.7 53.3 440.3 80 438.8C106.7 437.3 133.3 427.7 160 425.3C186.7 423 213.3 428 240 430.2C266.7 432.3 293.3 431.7 320 432.7C346.7 433.7 373.3 436.3 400 432.8C426.7 429.3 453.3 419.7 480 414.5C506.7 409.3 533.3 408.7 560 407.3C586.7 406 613.3 404 640 407.2C666.7 410.3 693.3 418.7 720 426C746.7 433.3 773.3 439.7 800 435.5C826.7 431.3 853.3 416.7 880 409.7C906.7 402.7 933.3 403.3 946.7 403.7L960 404L960 541L946.7 541C933.3 541 906.7 541 880 541C853.3 541 826.7 541 800 541C773.3 541 746.7 541 720 541C693.3 541 666.7 541 640 541C613.3 541 586.7 541 560 541C533.3 541 506.7 541 480 541C453.3 541 426.7 541 400 541C373.3 541 346.7 541 320 541C293.3 541 266.7 541 240 541C213.3 541 186.7 541 160 541C133.3 541 106.7 541 80 541C53.3 541 26.7 541 13.3 541L0 541Z" fill="#2a5786"></path><path d="M0 457L13.3 454.8C26.7 452.7 53.3 448.3 80 452C106.7 455.7 133.3 467.3 160 470.3C186.7 473.3 213.3 467.7 240 462.7C266.7 457.7 293.3 453.3 320 451.8C346.7 450.3 373.3 451.7 400 450.3C426.7 449 453.3 445 480 446.7C506.7 448.3 533.3 455.7 560 460C586.7 464.3 613.3 465.7 640 467.8C666.7 470 693.3 473 720 469.8C746.7 466.7 773.3 457.3 800 458.2C826.7 459 853.3 470 880 470.3C906.7 470.7 933.3 460.3 946.7 455.2L960 450L960 541L946.7 541C933.3 541 906.7 541 880 541C853.3 541 826.7 541 800 541C773.3 541 746.7 541 720 541C693.3 541 666.7 541 640 541C613.3 541 586.7 541 560 541C533.3 541 506.7 541 480 541C453.3 541 426.7 541 400 541C373.3 541 346.7 541 320 541C293.3 541 266.7 541 240 541C213.3 541 186.7 541 160 541C133.3 541 106.7 541 80 541C53.3 541 26.7 541 13.3 541L0 541Z" fill="#153152"></path><path d="M0 487L13.3 489C26.7 491 53.3 495 80 495.5C106.7 496 133.3 493 160 490.5C186.7 488 213.3 486 240 489.3C266.7 492.7 293.3 501.3 320 503.2C346.7 505 373.3 500 400 497C426.7 494 453.3 493 480 494.2C506.7 495.3 533.3 498.7 560 500.3C586.7 502 613.3 502 640 500C666.7 498 693.3 494 720 491.7C746.7 489.3 773.3 488.7 800 486.7C826.7 484.7 853.3 481.3 880 481.8C906.7 482.3 933.3 486.7 946.7 488.8L960 491L960 541L946.7 541C933.3 541 906.7 541 880 541C853.3 541 826.7 541 800 541C773.3 541 746.7 541 720 541C693.3 541 666.7 541 640 541C613.3 541 586.7 541 560 541C533.3 541 506.7 541 480 541C453.3 541 426.7 541 400 541C373.3 541 346.7 541 320 541C293.3 541 266.7 541 240 541C213.3 541 186.7 541 160 541C133.3 541 106.7 541 80 541C53.3 541 26.7 541 13.3 541L0 541Z" fill="#000e24"></path></svg>