<svg id="visual" viewBox="0 0 960 540" width="960" height="540" xmlns="http://www.w3.org/2000/svg" xmlns:xlink="http://www.w3.org/1999/xlink" version="1.1"><rect x="0" y="0" width="960" height="540" fill="#001220"></rect><path d="M0 332L12.3 330.2C24.7 328.3 49.3 324.7 74 329.7C98.7 334.7 123.3 348.3 148 352C172.7 355.7 197.3 349.3 221.8 346.5C246.3 343.7 270.7 344.3 295.2 339.2C319.7 334 344.3 323 369 314.8C393.7 306.7 418.3 301.3 443 297.8C467.7 294.3 492.3 292.7 517 293.2C541.7 293.7 566.3 296.3 591 296.5C615.7 296.7 640.3 294.3 664.8 303.5C689.3 312.7 713.7 333.3 738.2 337.8C762.7 342.3 787.3 330.7 812 328.5C836.7 326.3 861.3 333.7 886 340.2C910.7 346.7 935.3 352.3 947.7 355.2L960 358L960 541L947.7 541C935.3 541 910.7 541 886 541C861.3 541 836.7 541 812 541C787.3 541 762.7 541 738.2 541C713.7 541 689.3 541 664.8 541C640.3 541 615.7 541 591 541C566.3 541 541.7 541 517 541C492.3 541 467.7 541 443 541C418.3 541 393.7 541 369 541C344.3 541 319.7 541 295.2 541C270.7 541 246.3 541 221.8 541C197.3 541 172.7 541 148 541C123.3 541 98.7 541 74 541C49.3 541 24.7 541 12.3 541L0 541Z" fill="#4facf7"></path><path d="M0 341L12.3 347C24.7 353 49.3 365 74 369.2C98.7 373.3 123.3 369.7 148 364.2C172.7 358.7 197.3 351.3 221.8 355.3C246.3 359.3 270.7 374.7 295.2 379.3C319.7 384 344.3 378 369 369.7C393.7 361.3 418.3 350.7 443 346.5C467.7 342.3 492.3 344.7 517 354C541.7 363.3 566.3 379.7 591 382.3C615.7 385 640.3 374 664.8 369.2C689.3 364.3 713.7 365.7 738.2 368.7C762.7 371.7 787.3 376.3 812 381.5C836.7 386.7 861.3 392.3 886 386.2C910.7 380 935.3 362 947.7 353L960 344L960 541L947.7 541C935.3 541 910.7 541 886 541C861.3 541 836.7 541 812 541C787.3 541 762.7 541 738.2 541C713.7 541 689.3 541 664.8 541C640.3 541 615.7 541 591 541C566.3 541 541.7 541 517 541C492.3 541 467.7 541 443 541C418.3 541 393.7 541 369 541C344.3 541 319.7 541 295.2 541C270.7 541 246.3 541 221.8 541C197.3 541 172.7 541 148 541C123.3 541 98.7 541 74 541C49.3 541 24.7 541 12.3 541L0 541Z" fill="#3e80bd"></path><path d="M0 409L12.3 408.7C24.7 408.3 49.3 407.7 74 410.5C98.7 413.3 123.3 419.7 148 419.8C172.7 420 197.3 414 221.8 415.5C246.3 417 270.7 426 295.2 425.5C319.7 425 344.3 415 369 410.8C393.7 406.7 418.3 408.3 443 408.3C467.7 408.3 492.3 406.7 517 410.3C541.7 414 566.3 423 591 424.2C615.7 425.3 640.3 418.7 664.8 415.2C689.3 411.7 713.7 411.3 738.2 407.7C762.7 404 787.3 397 812 401.2C836.7 405.3 861.3 420.7 886 418C910.7 415.3 935.3 394.7 947.7 384.3L960 374L960 541L947.7 541C935.3 541 910.7 541 886 541C861.3 541 836.7 541 812 541C787.3 541 762.7 541 738.2 541C713.7 541 689.3 541 664.8 541C640.3 541 615.7 541 591 541C566.3 541 541.7 541 517 541C492.3 541 467.7 541 443 541C418.3 541 393.7 541 369 541C344.3 541 319.7 541 295.2 541C270.7 541 246.3 541 221.8 541C197.3 541 172.7 541 148 541C123.3 541 98.7 541 74 541C49.3 541 24.7 541 12.3 541L0 541Z" fill="#2a5786"></path><path d="M0 461L12.3 456.3C24.7 451.7 49.3 442.3 74 442.3C98.7 442.3 123.3 451.7 148 452.7C172.7 453.7 197.3 446.3 221.8 444C246.3 441.7 270.7 444.3 295.2 447C319.7 449.7 344.3 452.3 369 451C393.7 449.7 418.3 444.3 443 445.3C467.7 446.3 492.3 453.7 517 456.2C541.7 458.7 566.3 456.3 591 456.2C615.7 456 640.3 458 664.8 459.2C689.3 460.3 713.7 460.7 738.2 460.5C762.7 460.3 787.3 459.7 812 455.7C836.7 451.7 861.3 444.3 886 442.7C910.7 441 935.3 445 947.7 447L960 449L960 541L947.7 541C935.3 541 910.7 541 886 541C861.3 541 836.7 541 812 541C787.3 541 762.7 541 738.2 541C713.7 541 689.3 541 664.8 541C640.3 541 615.7 541 591 541C566.3 541 541.7 541 517 541C492.3 541 467.7 541 443 541C418.3 541 393.7 541 369 541C344.3 541 319.7 541 295.2 541C270.7 541 246.3 541 221.8 541C197.3 541 172.7 541 148 541C123.3 541 98.7 541 74 541C49.3 541 24.7 541 12.3 541L0 541Z" fill="#153152"></path><path d="M0 491L12.3 488C24.7 485 49.3 479 74 477.7C98.7 476.3 123.3 479.7 148 484.3C172.7 489 197.3 495 221.8 496.8C246.3 498.7 270.7 496.3 295.2 496.5C319.7 496.7 344.3 499.3 369 499.3C393.7 499.3 418.3 496.7 443 494.7C467.7 492.7 492.3 491.3 517 486.3C541.7 481.3 566.3 472.7 591 474.2C615.7 475.7 640.3 487.3 664.8 489.2C689.3 491 713.7 483 738.2 479.2C762.7 475.3 787.3 475.7 812 479C836.7 482.3 861.3 488.7 886 490.2C910.7 491.7 935.3 488.3 947.7 486.7L960 485L960 541L947.7 541C935.3 541 910.7 541 886 541C861.3 541 836.7 541 812 541C787.3 541 762.7 541 738.2 541C713.7 541 689.3 541 664.8 541C640.3 541 615.7 541 591 541C566.3 541 541.7 541 517 541C492.3 541 467.7 541 443 541C418.3 541 393.7 541 369 541C344.3 541 319.7 541 295.2 541C270.7 541 246.3 541 221.8 541C197.3 541 172.7 541 148 541C123.3 541 98.7 541 74 541C49.3 541 24.7 541 12.3 541L0 541Z" fill="#000e24"></path></svg>