<svg id="visual" viewBox="0 0 960 540" width="960" height="540" xmlns="http://www.w3.org/2000/svg" xmlns:xlink="http://www.w3.org/1999/xlink" version="1.1"><rect x="0" y="0" width="960" height="540" fill="#001220"></rect><path d="M0 313L12.3 317C24.7 321 49.3 329 74 336C98.7 343 123.3 349 148 352.2C172.7 355.3 197.3 355.7 221.8 343.5C246.3 331.3 270.7 306.7 295.2 295C319.7 283.3 344.3 284.7 369 287.8C393.7 291 418.3 296 443 300.7C467.7 305.3 492.3 309.7 517 319C541.7 328.3 566.3 342.7 591 337.7C615.7 332.7 640.3 308.3 664.8 295.8C689.3 283.3 713.7 282.7 738.2 291.3C762.7 300 787.3 318 812 330C836.7 342 861.3 348 886 343.2C910.7 338.3 935.3 322.7 947.7 314.8L960 307L960 541L947.7 541C935.3 541 910.7 541 886 541C861.3 541 836.7 541 812 541C787.3 541 762.7 541 738.2 541C713.7 541 689.3 541 664.8 541C640.3 541 615.7 541 591 541C566.3 541 541.7 541 517 541C492.3 541 467.7 541 443 541C418.3 541 393.7 541 369 541C344.3 541 319.7 541 295.2 541C270.7 541 246.3 541 221.8 541C197.3 541 172.7 541 148 541C123.3 541 98.7 541 74 541C49.3 541 24.7 541 12.3 541L0 541Z" fill="#4facf7"></path><path d="M0 395L12.3 390.5C24.7 386 49.3 377 74 376.5C98.7 376 123.3 384 148 386.7C172.7 389.3 197.3 386.7 221.8 378.8C246.3 371 270.7 358 295.2 351C319.7 344 344.3 343 369 345.8C393.7 348.7 418.3 355.3 443 353C467.7 350.7 492.3 339.3 517 334.2C541.7 329 566.3 330 591 336.2C615.7 342.3 640.3 353.7 664.8 353.7C689.3 353.7 713.7 342.3 738.2 341C762.7 339.7 787.3 348.3 812 352.3C836.7 356.3 861.3 355.7 886 356.3C910.7 357 935.3 359 947.7 360L960 361L960 541L947.7 541C935.3 541 910.7 541 886 541C861.3 541 836.7 541 812 541C787.3 541 762.7 541 738.2 541C713.7 541 689.3 541 664.8 541C640.3 541 615.7 541 591 541C566.3 541 541.7 541 517 541C492.3 541 467.7 541 443 541C418.3 541 393.7 541 369 541C344.3 541 319.7 541 295.2 541C270.7 541 246.3 541 221.8 541C197.3 541 172.7 541 148 541C123.3 541 98.7 541 74 541C49.3 541 24.7 541 12.3 541L0 541Z" fill="#3e80bd"></path><path d="M0 384L12.3 390.2C24.7 396.3 49.3 408.7 74 412.5C98.7 416.3 123.3 411.7 148 407.5C172.7 403.3 197.3 399.7 221.8 399.8C246.3 400 270.7 404 295.2 410.2C319.7 416.3 344.3 424.7 369 419.5C393.7 414.3 418.3 395.7 443 393.8C467.7 392 492.3 407 517 409.3C541.7 411.7 566.3 401.3 591 403.2C615.7 405 640.3 419 664.8 419.2C689.3 419.3 713.7 405.7 738.2 404.5C762.7 403.3 787.3 414.7 812 420.2C836.7 425.7 861.3 425.3 886 420C910.7 414.7 935.3 404.3 947.7 399.2L960 394L960 541L947.7 541C935.3 541 910.7 541 886 541C861.3 541 836.7 541 812 541C787.3 541 762.7 541 738.2 541C713.7 541 689.3 541 664.8 541C640.3 541 615.7 541 591 541C566.3 541 541.7 541 517 541C492.3 541 467.7 541 443 541C418.3 541 393.7 541 369 541C344.3 541 319.7 541 295.2 541C270.7 541 246.3 541 221.8 541C197.3 541 172.7 541 148 541C123.3 541 98.7 541 74 541C49.3 541 24.7 541 12.3 541L0 541Z" fill="#2a5786"></path><path d="M0 462L12.3 455.8C24.7 449.7 49.3 437.3 74 430.8C98.7 424.3 123.3 423.7 148 423.3C172.7 423 197.3 423 221.8 423.2C246.3 423.3 270.7 423.7 295.2 428.2C319.7 432.7 344.3 441.3 369 447.2C393.7 453 418.3 456 443 459C467.7 462 492.3 465 517 461.3C541.7 457.7 566.3 447.3 591 445.7C615.7 444 640.3 451 664.8 455.8C689.3 460.7 713.7 463.3 738.2 458.2C762.7 453 787.3 440 812 435.3C836.7 430.7 861.3 434.3 886 439.8C910.7 445.3 935.3 452.7 947.7 456.3L960 460L960 541L947.7 541C935.3 541 910.7 541 886 541C861.3 541 836.7 541 812 541C787.3 541 762.7 541 738.2 541C713.7 541 689.3 541 664.8 541C640.3 541 615.7 541 591 541C566.3 541 541.7 541 517 541C492.3 541 467.7 541 443 541C418.3 541 393.7 541 369 541C344.3 541 319.7 541 295.2 541C270.7 541 246.3 541 221.8 541C197.3 541 172.7 541 148 541C123.3 541 98.7 541 74 541C49.3 541 24.7 541 12.3 541L0 541Z" fill="#153152"></path><path d="M0 501L12.3 496.7C24.7 492.3 49.3 483.7 74 479.8C98.7 476 123.3 477 148 480.8C172.7 484.7 197.3 491.3 221.8 491.7C246.3 492 270.7 486 295.2 485.3C319.7 484.7 344.3 489.3 369 493.3C393.7 497.3 418.3 500.7 443 496.3C467.7 492 492.3 480 517 475C541.7 470 566.3 472 591 472.8C615.7 473.7 640.3 473.3 664.8 476.3C689.3 479.3 713.7 485.7 738.2 485.2C762.7 484.7 787.3 477.3 812 474.5C836.7 471.7 861.3 473.3 886 474.5C910.7 475.7 935.3 476.3 947.7 476.7L960 477L960 541L947.7 541C935.3 541 910.7 541 886 541C861.3 541 836.7 541 812 541C787.3 541 762.7 541 738.2 541C713.7 541 689.3 541 664.8 541C640.3 541 615.7 541 591 541C566.3 541 541.7 541 517 541C492.3 541 467.7 541 443 541C418.3 541 393.7 541 369 541C344.3 541 319.7 541 295.2 541C270.7 541 246.3 541 221.8 541C197.3 541 172.7 541 148 541C123.3 541 98.7 541 74 541C49.3 541 24.7 541 12.3 541L0 541Z" fill="#000e24"></path></svg>