<svg width="95.379" height="51.797" viewBox="-2 0 115.379 57.797" xmlns="http://www.w3.org/2000/svg"><g id="svgGroup" stroke-linecap="round" fill-rule="evenodd" font-size="9pt" stroke="#000" stroke-width="0.5mm" fill="#ffffff" style="stroke:#000;stroke-width:0.5mm;fill:#ffffff"><path d="M 16.403 40.859 A 169.623 169.623 0 0 0 16.245 40.999 A 274.253 274.253 0 0 0 15.215 41.914 A 26.014 26.014 0 0 1 15.164 41.959 A 28.037 28.037 0 0 1 11.621 44.59 Q 10.515 45.287 9.522 45.589 A 4.997 4.997 0 0 1 8.067 45.82 Q 6.828 45.82 6.547 44.909 A 2.081 2.081 0 0 1 6.465 44.297 Q 6.465 43.787 6.539 43.073 A 23.729 23.729 0 0 1 6.621 42.383 A 3.347 3.347 0 0 1 6.629 42.33 Q 6.955 40.199 10.713 33.126 A 231.008 231.008 0 0 1 12.657 29.551 A 641.03 641.03 0 0 1 12.707 29.46 Q 16.936 21.833 19.765 17.213 A 112.701 112.701 0 0 1 21.504 14.453 A 6.459 6.459 0 0 0 21.635 14.446 Q 22.951 14.364 31.504 13.516 A 5.383 5.383 0 0 0 33.633 12.832 A 3.256 3.256 0 0 0 33.87 12.684 Q 34.113 12.517 34.278 12.33 A 1.304 1.304 0 0 0 34.629 11.445 A 2.624 2.624 0 0 0 34.629 11.428 Q 34.624 10.621 34.121 10.215 A 4.39 4.39 0 0 1 33.8 9.926 Q 33.427 9.558 33.008 9.004 Q 32.403 8.203 31.934 8.027 Q 31.465 7.852 30.196 7.852 A 16.158 16.158 0 0 0 29.984 7.853 Q 29.038 7.865 27.292 7.983 A 152.457 152.457 0 0 0 25.879 8.086 A 0.61 0.61 0 0 1 25.891 8.063 Q 26.003 7.863 26.808 6.601 A 385.93 385.93 0 0 1 27.071 6.191 A 174.309 174.309 0 0 0 27.378 5.71 Q 27.83 4.999 28.23 4.353 A 101.59 101.59 0 0 0 29.004 3.086 A 30.572 30.572 0 0 0 29.048 3.012 Q 29.662 1.982 29.791 1.577 A 0.602 0.602 0 0 0 29.824 1.406 A 0.777 0.777 0 0 0 29.8 1.215 Q 29.742 0.988 29.551 0.742 A 1.404 1.404 0 0 0 29.538 0.725 Q 29.45 0.616 29.354 0.542 A 0.688 0.688 0 0 0 28.926 0.391 L 27.324 0 L 25.489 0.234 A 4.862 4.862 0 0 0 25.452 0.235 Q 25.049 0.238 24.839 0.308 A 0.514 0.514 0 0 0 24.707 0.371 Q 24.536 0.491 23.573 1.582 A 103.469 103.469 0 0 0 23.282 1.914 Q 22.051 3.32 18.77 8.242 L 15.254 8.398 A 23.21 23.21 0 0 1 14.971 8.417 Q 14.63 8.437 14.159 8.457 A 97.065 97.065 0 0 1 13.672 8.477 A 251.978 251.978 0 0 0 12.686 8.516 A 184.373 184.373 0 0 0 11.797 8.555 A 85.457 85.457 0 0 0 11.586 8.565 A 94.66 94.66 0 0 0 10.059 8.652 A 2.516 2.516 0 0 0 9.574 8.739 Q 9.008 8.891 8.214 9.302 A 16.498 16.498 0 0 0 7.383 9.766 A 11.153 11.153 0 0 0 6.636 10.247 Q 5.954 10.729 5.616 11.167 A 1.69 1.69 0 0 0 5.332 11.68 Q 5.215 12.031 4.649 12.656 A 3.119 3.119 0 0 0 4.607 12.703 Q 4.082 13.306 4.082 13.945 Q 4.082 14.459 4.713 14.844 A 3.287 3.287 0 0 0 5.137 15.059 A 5.528 5.528 0 0 0 7.324 15.508 L 7.676 15.508 A 4.492 4.492 0 0 0 7.884 15.502 Q 8.697 15.463 11.383 15.173 A 392.801 392.801 0 0 0 12.949 15 L 14.434 14.805 A 256.265 256.265 0 0 0 12.193 18.399 A 296.901 296.901 0 0 0 5.996 29.023 A 97.025 97.025 0 0 0 3.638 33.54 A 74.503 74.503 0 0 0 1.719 37.793 A 30.813 30.813 0 0 0 0.887 40.042 Q 0.014 42.738 0 44.805 Q -0.019 47.695 1.446 49.395 A 5.476 5.476 0 0 0 2.467 50.309 Q 3.207 50.825 4.184 51.183 A 11.62 11.62 0 0 0 6.035 51.68 A 4.364 4.364 0 0 0 6.427 51.751 A 5.194 5.194 0 0 0 7.129 51.797 A 8.916 8.916 0 0 0 10.119 51.268 A 11.782 11.782 0 0 0 12.52 50.078 Q 13.475 49.469 14.588 48.648 A 63.726 63.726 0 0 0 16.48 47.192" id="0" vector-effect="scaling-stroke"/><path d="M 16.48 47.192 A 6.243 6.243 0 0 0 17.852 49.473 A 5.9 5.9 0 0 0 20.508 51.078 A 7.733 7.733 0 0 0 22.676 51.367 A 9.961 9.961 0 0 0 24.328 51.224 Q 26.668 50.831 29.375 49.355 A 28.698 28.698 0 0 0 30.29 48.835 A 30.982 30.982 0 0 0 36.25 44.199 A 58.363 58.363 0 0 0 42.09 37.48 A 42.216 42.216 0 0 0 44.197 34.375 A 32.906 32.906 0 0 0 46.27 30.449 A 30.504 30.504 0 0 0 46.544 29.807 Q 47.341 27.882 47.629 26.386 A 8.292 8.292 0 0 0 47.793 24.824 A 7.046 7.046 0 0 0 47.78 24.379 Q 47.663 22.545 46.563 21.602 A 6.199 6.199 0 0 0 46.18 21.298 Q 45.149 20.547 44.16 20.547 Q 43.282 20.547 42.754 20.591 A 5.41 5.41 0 0 0 42.442 20.625 L 42.442 20.391 A 0.431 0.431 0 0 0 42.426 20.278 Q 42.382 20.118 42.22 19.934 A 2.121 2.121 0 0 0 42.051 19.766 Q 40.957 18.711 38.809 18.711 A 9.409 9.409 0 0 0 38.028 18.744 Q 33.493 19.122 27.637 23.828 A 42.167 42.167 0 0 0 21.973 29.473 A 25.193 25.193 0 0 0 20.724 31.105 A 27.976 27.976 0 0 0 17.696 36.719 A 29.354 29.354 0 0 0 17.332 37.662 A 23.298 23.298 0 0 0 16.403 40.859 M 40.215 25.742 L 39.942 25.742 A 1.297 1.297 0 0 1 39.254 25.569 Q 38.735 25.252 38.612 24.357 A 4.497 4.497 0 0 1 38.574 23.75 A 17.136 17.136 0 0 0 35.841 24.938 Q 34.555 25.627 33.218 26.578 A 30.491 30.491 0 0 0 32.598 27.031 Q 29.473 29.375 27.012 32.578 Q 22.765 38.02 22.069 42.024 A 8.953 8.953 0 0 0 21.934 43.398 Q 21.934 45.522 23.444 45.584 A 2.246 2.246 0 0 0 23.535 45.586 A 3.675 3.675 0 0 0 24.528 45.428 Q 26.002 45.009 28.301 43.477 A 22.662 22.662 0 0 0 31.205 41.15 Q 32.474 39.963 33.732 38.481 A 40.469 40.469 0 0 0 34.571 37.461 Q 37.676 33.555 39.219 30.684 A 33.857 33.857 0 0 0 39.82 29.515 Q 40.62 27.877 40.741 27.046 A 1.886 1.886 0 0 0 40.762 26.777 A 2.934 2.934 0 0 0 40.743 26.429 Q 40.701 26.077 40.563 25.905 A 0.424 0.424 0 0 0 40.215 25.742 Z" id="1" vector-effect="scaling-stroke"/><path d="M 46.934 50.547 L 45.02 50.469 L 44.317 50.469 A 1.96 1.96 0 0 1 43.977 50.328 Q 43.737 50.203 43.477 50 Q 43.028 49.648 42.793 49.492 A 0.479 0.479 0 0 1 42.61 49.255 Q 42.578 49.169 42.566 49.062 A 1.219 1.219 0 0 1 42.559 48.926 Q 42.559 48.516 42.871 47.5 Q 50.489 30.742 57.598 20.703 A 3.799 3.799 0 0 1 58.599 19.754 Q 59.056 19.45 59.64 19.216 A 7.679 7.679 0 0 1 60.117 19.043 A 11.555 11.555 0 0 1 62.305 18.55 A 9.877 9.877 0 0 1 63.496 18.477 A 0.817 0.817 0 0 1 64.276 18.939 Q 64.457 19.285 64.472 19.892 A 4.5 4.5 0 0 1 64.473 20 Q 64.473 20.385 64.222 21.005 A 6.718 6.718 0 0 1 64.16 21.152 A 4.211 4.211 0 0 1 63.95 21.564 Q 63.58 22.21 62.775 23.281 A 41.891 41.891 0 0 1 62.598 23.516 A 117.192 117.192 0 0 1 61.414 25.041 Q 60.596 26.079 59.629 27.266 A 732.219 732.219 0 0 0 59.037 27.993 Q 58.081 29.17 57.779 29.555 A 8.196 8.196 0 0 0 57.676 29.688 Q 61.436 25.79 64.685 23.291 A 34.571 34.571 0 0 1 67.344 21.426 Q 71.403 18.873 73.355 18.721 A 3.076 3.076 0 0 1 73.594 18.711 A 5.387 5.387 0 0 1 74.766 18.831 Q 75.566 19.009 76.152 19.453 A 3.186 3.186 0 0 1 76.563 19.824 A 4.358 4.358 0 0 1 77.194 20.681 A 3.115 3.115 0 0 1 77.598 22.207 Q 77.598 23.477 77.422 24.316 A 6.272 6.272 0 0 1 77.133 25.282 A 8.29 8.29 0 0 1 76.778 26.074 Q 76.309 26.992 75.977 27.637 Q 75.645 28.281 74.864 29.316 A 1804.478 1804.478 0 0 0 74.514 29.78 Q 74.011 30.446 73.789 30.742 A 10.735 10.735 0 0 1 73.631 30.947 Q 73.296 31.372 72.578 32.227 A 221.05 221.05 0 0 0 72.362 32.485 Q 71.696 33.28 71.594 33.421 A 0.495 0.495 0 0 0 71.582 33.438 Q 72.42 32.6 73.761 31.144 A 193.334 193.334 0 0 0 74.629 30.195 A 597.44 597.44 0 0 1 75.568 29.165 Q 76.919 27.686 77.93 26.602 A 38.741 38.741 0 0 1 79.037 25.465 Q 79.663 24.846 80.394 24.171 A 75.09 75.09 0 0 1 81.309 23.34 A 38.565 38.565 0 0 1 83.034 21.881 Q 83.84 21.241 84.598 20.723 A 21.779 21.779 0 0 1 85.098 20.391 A 18.088 18.088 0 0 1 89.212 18.441 A 14.478 14.478 0 0 1 93.653 17.734 A 3.882 3.882 0 0 1 94.981 17.954 A 3.435 3.435 0 0 1 96.153 18.672 A 3.244 3.244 0 0 1 96.864 19.598 A 2.899 2.899 0 0 1 97.168 20.918 Q 97.168 22.209 94.087 27.039 A 96.376 96.376 0 0 1 94.004 27.168 A 1846.134 1846.134 0 0 0 87.696 37.09 A 79.32 79.32 0 0 0 86.627 38.828 Q 84.551 42.312 84.551 43.359 A 7.511 7.511 0 0 0 84.578 44.029 Q 84.678 45.132 85.136 45.442 A 0.696 0.696 0 0 0 85.215 45.488 Q 85.863 45.812 86.772 45.746 A 4.534 4.534 0 0 0 86.817 45.742 Q 87.754 45.664 89.453 44.531 Q 91.153 43.398 92.481 42.188 A 122.043 122.043 0 0 0 95.287 39.557 A 103.084 103.084 0 0 0 96.465 38.398 A 1.449 1.449 0 0 1 96.822 38.158 A 1.177 1.177 0 0 1 97.324 38.047 Q 98.067 38.047 98.223 39.18 A 17.048 17.048 0 0 1 98.379 41.372 A 18.655 18.655 0 0 1 98.379 41.523 A 9.866 9.866 0 0 1 98.365 42.079 Q 98.336 42.591 98.248 42.919 A 1.509 1.509 0 0 1 98.145 43.203 A 8.765 8.765 0 0 1 97.291 44.511 Q 95.924 46.281 93.145 48.555 A 17.83 17.83 0 0 1 90.655 50.282 Q 88.118 51.719 85.723 51.719 Q 85.293 51.719 85.098 51.68 A 15.585 15.585 0 0 1 83.135 51.372 Q 80.665 50.807 79.532 49.473 A 6.452 6.452 0 0 1 77.989 45.156 Q 77.989 42.656 79.688 39.102 A 47.158 47.158 0 0 1 82.166 34.552 A 40.094 40.094 0 0 1 83.418 32.656 A 400.861 400.861 0 0 1 85.366 29.907 A 295.095 295.095 0 0 1 87.149 27.441 A 119.696 119.696 0 0 0 87.547 26.894 Q 88.798 25.161 88.846 24.937 A 0.075 0.075 0 0 0 88.848 24.922 A 0.163 0.163 0 0 0 88.754 24.767 Q 88.677 24.727 88.535 24.727 Q 87.357 24.727 83.368 28.425 A 76.514 76.514 0 0 0 83.145 28.633 A 168.563 168.563 0 0 0 76.485 35.195 A 126.903 126.903 0 0 0 70.801 41.523 Q 69.434 43.164 64.317 49.844 A 1.856 1.856 0 0 1 63.301 50.52 Q 62.986 50.609 62.605 50.622 A 3.94 3.94 0 0 1 62.461 50.625 A 7.321 7.321 0 0 1 60.711 50.405 A 9.077 9.077 0 0 1 59.824 50.137 A 4.365 4.365 0 0 1 59.3 49.913 Q 58.755 49.634 58.563 49.278 A 0.85 0.85 0 0 1 58.457 48.867 A 0.974 0.974 0 0 1 58.554 48.611 Q 59.234 47.156 64.668 37.91 A 516.879 516.879 0 0 0 66.124 35.419 Q 70.779 27.396 70.877 26.425 A 0.385 0.385 0 0 0 70.879 26.387 A 1.125 1.125 0 0 0 70.809 25.974 Q 70.616 25.482 69.888 25.435 A 2.488 2.488 0 0 0 69.727 25.43 Q 68.589 25.43 65.074 28.779 A 61.183 61.183 0 0 0 64.981 28.867 Q 55.098 38.32 49.668 47.656 Q 49.32 48.199 48.318 49.356 A 50.688 50.688 0 0 1 48.301 49.375 A 14.086 14.086 0 0 1 47.944 49.773 Q 47.224 50.542 46.938 50.547 A 0.214 0.214 0 0 1 46.934 50.547 Z" id="2" vector-effect="scaling-stroke"/></g></svg>